<?xml version="1.0" encoding="UTF-8"?>
<svg width="154px" height="80px" viewBox="0 0 154 80" version="1.1" xmlns="http://www.w3.org/2000/svg" xmlns:xlink="http://www.w3.org/1999/xlink">
    <!-- Generator: Sketch 54.1 (76490) - https://sketchapp.com -->
    <title>Logo</title>
    <desc>Created with Sketch.</desc>
    <g id="Page-1" stroke="none" stroke-width="1" fill="none" fill-rule="evenodd">
        <g id="Desktop" transform="translate(-20.000000, -20.000000)" fill-rule="nonzero">
            <g id="Logo" transform="translate(20.000000, 20.000000)">
                <path d="M0.311111111,23.3009709 L21.2333333,23.3009709 L30.3333333,57.3203883 L30.6444444,57.3203883 L39.3555556,23.3009709 L60.2777778,23.3009709 L40.3666667,78.2912621 L19.8333333,78.2912621 L0.311111111,23.3009709 Z M60.2777778,23.3009709 L98.1555556,23.3009709 L98.1555556,38.6796117 L77.7,38.6796117 L77.7,43.4174757 L96.9111111,43.4174757 L96.9111111,57.7864078 L77.7,57.7864078 L77.7,62.9126214 L99.4777778,62.9126214 L99.4777778,78.2912621 L60.2777778,78.2912621 L60.2777778,23.3009709 Z M131.288889,79.6893204 C126.933312,79.6893204 122.90187,79.016188 119.194444,77.6699029 C115.487018,76.3236179 112.272236,74.3948346 109.55,71.8834951 C106.827764,69.3721557 104.688897,66.330115 103.133333,62.7572816 C101.57777,59.1844482 100.8,55.197433 100.8,50.7961165 C100.8,46.3948 101.57777,42.4077849 103.133333,38.8349515 C104.688897,35.2621181 106.814801,32.2071324 109.511111,29.6699029 C112.207421,27.1326734 115.370352,25.1780004 119,23.8058252 C122.629648,22.4336501 126.518498,21.7475728 130.666667,21.7475728 C134.970392,21.7475728 139.053684,22.446595 142.916667,23.8446602 C146.779649,25.2427254 149.929617,27.1585639 152.366667,29.592233 L141.555556,42.5631068 C140.414809,41.2168217 139.066674,40.1423988 137.511111,39.3398058 C135.955548,38.5372128 134.037048,38.1359223 131.755556,38.1359223 C130.251844,38.1359223 128.787044,38.433654 127.361111,39.0291262 C125.935178,39.6245984 124.677783,40.4789588 123.588889,41.592233 C122.499995,42.7055072 121.618522,44.0388272 120.944444,45.592233 C120.270367,47.1456388 119.933333,48.8802493 119.933333,50.7961165 C119.933333,54.6278509 120.931471,57.7475608 122.927778,60.1553398 C124.924084,62.5631188 128.125904,63.7669903 132.533333,63.7669903 C133.311115,63.7669903 134.114811,63.702266 134.944444,63.5728155 C135.774078,63.443365 136.42222,63.2491922 136.888889,62.9902913 L136.888889,58.7961165 L128.022222,58.7961165 L128.022222,44.2718447 L153.3,44.2718447 L153.3,74.3300971 C152.003697,75.1068 150.512971,75.818767 148.827778,76.4660194 C147.142584,77.1132718 145.353713,77.6699006 143.461111,78.1359223 C141.568509,78.6019441 139.585196,78.9773449 137.511111,79.2621359 C135.437027,79.546927 133.362973,79.6893204 131.288889,79.6893204 Z" id="VEG" fill="#6C466F"></path>
                <path d="M12.7096667,21.7475728 L5.49033333,21.7475728 L5.49033333,6.38990291 L0.212333333,6.38990291 L0.212333333,0.301359223 L17.9876667,0.301359223 L17.9876667,6.38990291 L12.7096667,6.38990291 L12.7096667,21.7475728 Z M33.306,13.5992233 L27.4213333,13.5992233 L27.4213333,21.7475728 L20.202,21.7475728 L20.202,0.301359223 L27.391,0.301359223 L27.391,7.57126214 L33.2756667,7.57126214 L33.2756667,0.301359223 L40.5253333,0.301359223 L40.5253333,21.7475728 L33.306,21.7475728 L33.306,13.5992233 Z M44.5293333,0.301359223 L59.3016667,0.301359223 L59.3016667,6.29902913 L51.324,6.29902913 L51.324,8.14679612 L58.8163333,8.14679612 L58.8163333,13.7506796 L51.324,13.7506796 L51.324,15.7499029 L59.8173333,15.7499029 L59.8173333,21.7475728 L44.5293333,21.7475728 L44.5293333,0.301359223 Z" id="THE" fill="#417505"></path>
            </g>
        </g>
    </g>
</svg>